<?xml version="1.0" encoding="utf-8"?>
<!-- Generator: Adobe Illustrator 28.0.0, SVG Export Plug-In . SVG Version: 6.00 Build 0)  -->
<svg version="1.1" id="Livello_2_00000049216494460225597320000009709269713408485506_"
	 xmlns="http://www.w3.org/2000/svg" xmlns:xlink="http://www.w3.org/1999/xlink" x="0px" y="0px" viewBox="0 0 24.6 1016.4"
	 style="enable-background:new 0 0 24.6 1016.4;" xml:space="preserve">
<style type="text/css">
	.st0{fill:#FF003D;}
</style>
<g>
	<rect x="1.6" y="2.2" class="st0" width="9.1" height="9.1"/>
	<rect x="13.8" y="2.2" class="st0" width="9.1" height="9.1"/>
	<rect x="1.6" y="15" class="st0" width="9.1" height="9.1"/>
	<rect x="13.8" y="15" class="st0" width="9.1" height="9.1"/>
	<rect x="1.6" y="27.7" class="st0" width="9.1" height="9.1"/>
	<rect x="13.8" y="27.7" class="st0" width="9.1" height="9.1"/>
	<rect x="1.6" y="40.4" class="st0" width="9.1" height="9.1"/>
	<rect x="13.8" y="40.4" class="st0" width="9.1" height="9.1"/>
	<rect x="1.6" y="53.1" class="st0" width="9.1" height="9.1"/>
	<rect x="13.8" y="53.1" class="st0" width="9.1" height="9.1"/>
	<rect x="1.6" y="65.8" class="st0" width="9.1" height="9.1"/>
	<rect x="13.8" y="65.8" class="st0" width="9.1" height="9.1"/>
	<rect x="1.6" y="78.5" class="st0" width="9.1" height="9.1"/>
	<rect x="13.8" y="78.5" class="st0" width="9.1" height="9.1"/>
	<rect x="1.6" y="91.2" class="st0" width="9.1" height="9.1"/>
	<rect x="13.8" y="91.2" class="st0" width="9.1" height="9.1"/>
	<rect x="1.6" y="103.9" class="st0" width="9.1" height="9.1"/>
	<rect x="13.8" y="103.9" class="st0" width="9.1" height="9.1"/>
	<rect x="1.6" y="116.6" class="st0" width="9.1" height="9.1"/>
	<rect x="13.8" y="116.6" class="st0" width="9.1" height="9.1"/>
	<rect x="1.6" y="129.3" class="st0" width="9.1" height="9.1"/>
	<rect x="13.8" y="129.3" class="st0" width="9.1" height="9.1"/>
	<rect x="1.6" y="142" class="st0" width="9.1" height="9.1"/>
	<rect x="13.8" y="142" class="st0" width="9.1" height="9.1"/>
	<rect x="1.6" y="154.7" class="st0" width="9.1" height="9.1"/>
	<rect x="13.8" y="154.7" class="st0" width="9.1" height="9.1"/>
	<rect x="1.6" y="167.4" class="st0" width="9.1" height="9.1"/>
	<rect x="13.8" y="167.4" class="st0" width="9.1" height="9.1"/>
	<rect x="1.6" y="180.1" class="st0" width="9.1" height="9.1"/>
	<rect x="13.8" y="180.1" class="st0" width="9.1" height="9.1"/>
	<rect x="1.6" y="192.8" class="st0" width="9.1" height="9.1"/>
	<rect x="13.8" y="192.8" class="st0" width="9.1" height="9.1"/>
	<rect x="1.6" y="205.5" class="st0" width="9.1" height="9.1"/>
	<rect x="13.8" y="205.5" class="st0" width="9.1" height="9.1"/>
	<rect x="1.6" y="218.2" class="st0" width="9.1" height="9.1"/>
	<rect x="13.8" y="218.2" class="st0" width="9.1" height="9.1"/>
	<rect x="1.6" y="230.9" class="st0" width="9.1" height="9.1"/>
	<rect x="13.8" y="230.9" class="st0" width="9.1" height="9.1"/>
	<rect x="1.6" y="243.7" class="st0" width="9.1" height="9.1"/>
	<rect x="13.8" y="243.7" class="st0" width="9.1" height="9.1"/>
	<rect x="1.6" y="256.4" class="st0" width="9.1" height="9.1"/>
	<rect x="13.8" y="256.4" class="st0" width="9.1" height="9.1"/>
	<rect x="1.6" y="269.1" class="st0" width="9.1" height="9.1"/>
	<rect x="13.8" y="269.1" class="st0" width="9.1" height="9.1"/>
	<rect x="1.6" y="281.8" class="st0" width="9.1" height="9.1"/>
	<rect x="13.8" y="281.8" class="st0" width="9.1" height="9.1"/>
	<rect x="1.6" y="294.5" class="st0" width="9.1" height="9.1"/>
	<rect x="13.8" y="294.5" class="st0" width="9.1" height="9.1"/>
	<rect x="1.6" y="307.2" class="st0" width="9.1" height="9.1"/>
	<rect x="13.8" y="307.2" class="st0" width="9.1" height="9.1"/>
	<rect x="1.6" y="319.9" class="st0" width="9.1" height="9.1"/>
	<rect x="13.8" y="319.9" class="st0" width="9.1" height="9.1"/>
	<rect x="1.6" y="332.6" class="st0" width="9.1" height="9.1"/>
	<rect x="13.8" y="332.6" class="st0" width="9.1" height="9.1"/>
	<rect x="1.6" y="345.3" class="st0" width="9.1" height="9.1"/>
	<rect x="13.8" y="345.3" class="st0" width="9.1" height="9.1"/>
	<rect x="1.6" y="358" class="st0" width="9.1" height="9.1"/>
	<rect x="13.8" y="358" class="st0" width="9.1" height="9.1"/>
	<rect x="1.6" y="370.7" class="st0" width="9.1" height="9.1"/>
	<rect x="13.8" y="370.7" class="st0" width="9.1" height="9.1"/>
	<rect x="1.6" y="383.4" class="st0" width="9.1" height="9.1"/>
	<rect x="13.8" y="383.4" class="st0" width="9.1" height="9.1"/>
	<rect x="1.6" y="396.1" class="st0" width="9.1" height="9.1"/>
	<rect x="13.8" y="396.1" class="st0" width="9.1" height="9.1"/>
	<rect x="1.6" y="408.8" class="st0" width="9.1" height="9.1"/>
	<rect x="13.8" y="408.8" class="st0" width="9.1" height="9.1"/>
	<rect x="1.6" y="421.5" class="st0" width="9.1" height="9.1"/>
	<rect x="13.8" y="421.5" class="st0" width="9.1" height="9.1"/>
</g>
<g>
	<rect x="1.6" y="434.6" class="st0" width="9.1" height="9.1"/>
	<rect x="13.8" y="434.6" class="st0" width="9.1" height="9.1"/>
	<rect x="1.6" y="447.3" class="st0" width="9.1" height="9.1"/>
	<rect x="13.8" y="447.3" class="st0" width="9.1" height="9.1"/>
	<rect x="1.6" y="460" class="st0" width="9.1" height="9.1"/>
	<rect x="13.8" y="460" class="st0" width="9.1" height="9.1"/>
	<rect x="1.6" y="472.7" class="st0" width="9.1" height="9.1"/>
	<rect x="13.8" y="472.7" class="st0" width="9.1" height="9.1"/>
	<rect x="1.6" y="485.4" class="st0" width="9.1" height="9.1"/>
	<rect x="13.8" y="485.4" class="st0" width="9.1" height="9.1"/>
	<rect x="1.6" y="498.1" class="st0" width="9.1" height="9.1"/>
	<rect x="13.8" y="498.1" class="st0" width="9.1" height="9.1"/>
	<rect x="1.6" y="510.8" class="st0" width="9.1" height="9.1"/>
	<rect x="13.8" y="510.8" class="st0" width="9.1" height="9.1"/>
	<rect x="1.6" y="523.5" class="st0" width="9.1" height="9.1"/>
	<rect x="13.8" y="523.5" class="st0" width="9.1" height="9.1"/>
	<rect x="1.6" y="536.2" class="st0" width="9.1" height="9.1"/>
	<rect x="13.8" y="536.2" class="st0" width="9.1" height="9.1"/>
	<rect x="1.6" y="548.9" class="st0" width="9.1" height="9.1"/>
	<rect x="13.8" y="548.9" class="st0" width="9.1" height="9.1"/>
	<rect x="1.6" y="561.7" class="st0" width="9.1" height="9.1"/>
	<rect x="13.8" y="561.7" class="st0" width="9.1" height="9.1"/>
	<rect x="1.6" y="574.4" class="st0" width="9.1" height="9.1"/>
	<rect x="13.8" y="574.4" class="st0" width="9.1" height="9.1"/>
	<rect x="1.6" y="587.1" class="st0" width="9.1" height="9.1"/>
	<rect x="13.8" y="587.1" class="st0" width="9.1" height="9.1"/>
	<rect x="1.6" y="599.8" class="st0" width="9.1" height="9.1"/>
	<rect x="13.8" y="599.8" class="st0" width="9.1" height="9.1"/>
	<rect x="1.6" y="612.5" class="st0" width="9.1" height="9.1"/>
	<rect x="13.8" y="612.5" class="st0" width="9.1" height="9.1"/>
	<rect x="1.6" y="625.2" class="st0" width="9.1" height="9.1"/>
	<rect x="13.8" y="625.2" class="st0" width="9.1" height="9.1"/>
	<rect x="1.6" y="637.9" class="st0" width="9.1" height="9.1"/>
	<rect x="13.8" y="637.9" class="st0" width="9.1" height="9.1"/>
	<rect x="1.6" y="650.6" class="st0" width="9.1" height="9.1"/>
	<rect x="13.8" y="650.6" class="st0" width="9.1" height="9.1"/>
	<rect x="1.6" y="663.3" class="st0" width="9.1" height="9.1"/>
	<rect x="13.8" y="663.3" class="st0" width="9.1" height="9.1"/>
	<rect x="1.6" y="676" class="st0" width="9.1" height="9.1"/>
	<rect x="13.8" y="676" class="st0" width="9.1" height="9.1"/>
	<rect x="1.6" y="688.7" class="st0" width="9.1" height="9.1"/>
	<rect x="13.8" y="688.7" class="st0" width="9.1" height="9.1"/>
	<rect x="1.6" y="701.4" class="st0" width="9.1" height="9.1"/>
	<rect x="13.8" y="701.4" class="st0" width="9.1" height="9.1"/>
	<rect x="1.6" y="714.1" class="st0" width="9.1" height="9.1"/>
	<rect x="13.8" y="714.1" class="st0" width="9.1" height="9.1"/>
	<rect x="1.6" y="726.8" class="st0" width="9.1" height="9.1"/>
	<rect x="13.8" y="726.8" class="st0" width="9.1" height="9.1"/>
	<rect x="1.6" y="739.5" class="st0" width="9.1" height="9.1"/>
	<rect x="13.8" y="739.5" class="st0" width="9.1" height="9.1"/>
	<rect x="1.6" y="752.2" class="st0" width="9.1" height="9.1"/>
	<rect x="13.8" y="752.2" class="st0" width="9.1" height="9.1"/>
	<rect x="1.6" y="764.9" class="st0" width="9.1" height="9.1"/>
	<rect x="13.8" y="764.9" class="st0" width="9.1" height="9.1"/>
	<rect x="1.6" y="777.6" class="st0" width="9.1" height="9.1"/>
	<rect x="13.8" y="777.6" class="st0" width="9.1" height="9.1"/>
	<rect x="1.6" y="790.4" class="st0" width="9.1" height="9.1"/>
	<rect x="13.8" y="790.4" class="st0" width="9.1" height="9.1"/>
	<rect x="1.6" y="803.1" class="st0" width="9.1" height="9.1"/>
	<rect x="13.8" y="803.1" class="st0" width="9.1" height="9.1"/>
	<rect x="1.6" y="815.8" class="st0" width="9.1" height="9.1"/>
	<rect x="13.8" y="815.8" class="st0" width="9.1" height="9.1"/>
	<rect x="1.6" y="828.5" class="st0" width="9.1" height="9.1"/>
	<rect x="13.8" y="828.5" class="st0" width="9.1" height="9.1"/>
	<rect x="1.6" y="841.2" class="st0" width="9.1" height="9.1"/>
	<rect x="13.8" y="841.2" class="st0" width="9.1" height="9.1"/>
	<rect x="1.6" y="853.9" class="st0" width="9.1" height="9.1"/>
	<rect x="13.8" y="853.9" class="st0" width="9.1" height="9.1"/>
</g>
<g>
	<rect x="1.6" y="866.9" class="st0" width="9.1" height="9.1"/>
	<rect x="13.8" y="866.9" class="st0" width="9.1" height="9.1"/>
	<rect x="1.6" y="879.6" class="st0" width="9.1" height="9.1"/>
	<rect x="13.8" y="879.6" class="st0" width="9.1" height="9.1"/>
	<rect x="1.6" y="892.4" class="st0" width="9.1" height="9.1"/>
	<rect x="13.8" y="892.4" class="st0" width="9.1" height="9.1"/>
	<rect x="1.6" y="905.1" class="st0" width="9.1" height="9.1"/>
	<rect x="13.8" y="905.1" class="st0" width="9.1" height="9.1"/>
	<rect x="1.6" y="917.8" class="st0" width="9.1" height="9.1"/>
	<rect x="13.8" y="917.8" class="st0" width="9.1" height="9.1"/>
	<rect x="1.6" y="930.5" class="st0" width="9.1" height="9.1"/>
	<rect x="13.8" y="930.5" class="st0" width="9.1" height="9.1"/>
	<rect x="1.6" y="943.2" class="st0" width="9.1" height="9.1"/>
	<rect x="13.8" y="943.2" class="st0" width="9.1" height="9.1"/>
	<rect x="1.6" y="955.9" class="st0" width="9.1" height="9.1"/>
	<rect x="13.8" y="955.9" class="st0" width="9.1" height="9.1"/>
	<rect x="1.6" y="968.6" class="st0" width="9.1" height="9.1"/>
	<rect x="13.8" y="968.6" class="st0" width="9.1" height="9.1"/>
	<rect x="1.6" y="981.3" class="st0" width="9.1" height="9.1"/>
	<rect x="13.8" y="981.3" class="st0" width="9.1" height="9.1"/>
	<rect x="1.6" y="994" class="st0" width="9.1" height="9.1"/>
	<rect x="13.8" y="994" class="st0" width="9.1" height="9.1"/>
</g>
</svg>
